<svg width="23" height="23" viewBox="0 0 23 23" fill="none" xmlns="http://www.w3.org/2000/svg">
<path d="M8.73423 13.6513C8.16309 13.192 7.81543 12.5679 7.81543 11.8678C7.81543 10.4651 9.21797 9.33447 10.9582 9.33447C11.8194 9.33447 12.6121 9.61533 13.1733 10.0746" stroke="#86C9F6" stroke-width="1.78794" stroke-linecap="round" stroke-linejoin="round"/>
<path d="M14.0427 12.3169C13.8122 13.3491 12.803 14.1637 11.5226 14.3509" stroke="#86C9F6" stroke-width="1.78794" stroke-linecap="round" stroke-linejoin="round"/>
<path d="M5.6491 16.1363C4.07274 15.1393 2.73774 13.683 1.77026 11.8675C2.74767 10.0439 4.09161 8.57963 5.67791 7.57463C7.25428 6.56963 9.07301 6.02393 10.9583 6.02393C12.8545 6.02393 14.6723 6.57764 16.2586 7.58984" stroke="#86C9F6" stroke-width="1.78794" stroke-linecap="round" stroke-linejoin="round"/>
<path d="M18.3564 9.34961C19.0398 10.081 19.6407 10.9251 20.1463 11.8669C18.1925 15.5132 14.7398 17.7097 10.9583 17.7097C10.1011 17.7097 9.25576 17.5976 8.44324 17.3792" stroke="#86C9F6" stroke-width="1.78794" stroke-linecap="round" stroke-linejoin="round"/>
<path d="M18.7928 5.55615L3.12451 18.1779" stroke="#86C9F6" stroke-width="1.78794" stroke-linecap="round" stroke-linejoin="round"/>
</svg>
