<svg width="23" height="23" viewBox="0 0 23 23" fill="none" xmlns="http://www.w3.org/2000/svg">
<g clip-path="url(#clip0_145_1359)">
<path d="M11.3055 6.68943C14.6937 6.68943 17.7153 8.59359 19.1904 11.6063C17.7153 14.619 14.7026 16.5231 11.3055 16.5231C7.90845 16.5231 4.89577 14.619 3.42072 11.6063C4.89577 8.59359 7.91739 6.68943 11.3055 6.68943ZM11.3055 4.90149C7.00196 4.90149 3.30334 7.47874 1.6538 11.1731C1.53074 11.4488 1.53074 11.7638 1.6538 12.0394C3.30334 15.7338 7.00196 18.3111 11.3055 18.3111C15.6091 18.3111 19.3077 15.7338 20.9573 12.0394C21.0803 11.7638 21.0803 11.4488 20.9573 11.1731C19.3077 7.47874 15.6091 4.90149 11.3055 4.90149ZM11.3055 9.37134C12.5392 9.37134 13.5405 10.3726 13.5405 11.6063C13.5405 12.84 12.5392 13.8412 11.3055 13.8412C10.0719 13.8412 9.07061 12.84 9.07061 11.6063C9.07061 10.3726 10.0719 9.37134 11.3055 9.37134ZM11.3055 7.5834C9.08849 7.5834 7.28267 9.38922 7.28267 11.6063C7.28267 13.8233 9.08849 15.6291 11.3055 15.6291C13.5226 15.6291 15.3284 13.8233 15.3284 11.6063C15.3284 9.38922 13.5226 7.5834 11.3055 7.5834Z" fill="#86C9F6"/>
</g>
<defs>
<clipPath id="clip0_145_1359">
<rect width="21.4553" height="21.4553" fill="white" transform="translate(0.577942 0.87854)"/>
</clipPath>
</defs>
</svg>
